<svg width="469" height="409" viewBox="0 0 469 409" fill="none" xmlns="http://www.w3.org/2000/svg">
<g clip-path="url(#clip0_3_14)">
<path d="M149.877 368.032C145.996 368.032 142.292 367.253 139.543 365.651L4.20407 287.523C1.48465 285.95 0 283.775 0 281.379C0 278.512 2.14613 275.616 5.89452 273.455L263.989 124.461C271.001 120.404 281.673 119.978 287.758 123.491L423.082 201.619C425.802 203.192 427.286 205.367 427.286 207.763C427.286 210.63 425.14 213.525 421.392 215.686L163.297 364.681C159.461 366.9 154.536 368.032 149.862 368.032H149.877ZM139.822 365.151C145.746 368.576 156.153 368.135 163.003 364.181L421.098 215.172C424.655 213.114 426.698 210.409 426.698 207.763C426.698 205.588 425.302 203.589 422.788 202.133L287.464 124.005C281.54 120.58 271.133 121.021 264.283 124.975L6.18851 273.97C2.63122 276.028 0.587982 278.733 0.587982 281.379C0.587982 283.554 1.98444 285.553 4.49806 287.008L139.822 365.137V365.151Z" fill="#FF6600"/>
<path d="M427.007 171.661L407.574 175.013L287.626 105.763C281.614 102.294 271.104 102.72 264.151 106.733L34.6616 239.22L0.294066 245.144V257.33C0.279367 259.55 1.60233 261.681 4.33644 263.254L139.66 341.382C145.673 344.851 156.183 344.425 163.136 340.412L421.23 191.403C424.964 189.242 426.904 186.493 426.963 183.862H426.978V171.676L427.007 171.661Z" fill="url(#paint0_linear_3_14)"/>
<path d="M139.675 329.108L4.35109 250.98C-1.66102 247.511 -0.911347 241.44 6.04154 237.427L264.136 88.4178C271.089 84.4048 281.599 83.9638 287.611 87.4476L422.935 165.576C428.947 169.045 428.198 175.116 421.245 179.129L163.165 328.138C156.212 332.151 145.702 332.592 139.69 329.108H139.675Z" fill="#2042B8"/>
<path d="M421.26 179.128L163.165 328.138C156.212 332.151 145.702 332.592 139.69 329.108L4.35127 250.98C1.94054 249.583 0.632285 247.775 0.352994 245.85C-0.0144945 248.349 1.27907 250.789 4.35127 252.567L139.675 330.695C145.687 334.164 156.198 333.738 163.15 329.725L421.245 180.716C425.405 178.32 427.331 175.174 426.919 172.293C426.566 174.704 424.655 177.159 421.245 179.128H421.26Z" fill="#E12828"/>
<path opacity="0.51" d="M139.954 326.08L9.43716 250.715C3.61615 247.349 4.35112 241.484 11.0688 237.603L264.386 91.3869C271.104 87.5062 281.276 87.0799 287.097 90.4461L417.599 165.811C423.42 169.177 422.685 175.042 415.968 178.923L162.665 325.139C155.947 329.02 145.775 329.446 139.954 326.08Z" fill="#453C9E"/>
<path style="mix-blend-mode:lighten" opacity="0.8" d="M149.818 325.404C146.04 325.404 142.439 324.639 139.748 323.096L9.23127 247.717C6.55595 246.173 5.086 244.027 5.086 241.66C5.086 238.838 7.18803 236.001 10.8629 233.87L264.18 87.668C271.001 83.7286 281.393 83.3023 287.317 86.7273L417.82 162.092C420.495 163.635 421.965 165.781 421.965 168.148C421.965 170.97 419.863 173.807 416.188 175.939L162.871 322.14C159.137 324.287 154.345 325.389 149.803 325.389L149.818 325.404ZM140.16 322.361C145.863 325.654 155.859 325.227 162.459 321.42L415.762 175.219C419.157 173.249 421.112 170.676 421.112 168.163C421.112 166.105 419.789 164.223 417.393 162.827L286.891 87.4623C281.187 84.1696 271.192 84.5958 264.592 88.403L11.2892 234.605C7.89361 236.574 5.93857 239.147 5.93857 241.66C5.93857 243.718 7.26153 245.6 9.65756 246.996L140.16 322.361Z" fill="url(#paint1_linear_3_14)"/>
<g opacity="0.1">
<path style="mix-blend-mode:lighten" opacity="0.5" d="M139.954 322.714L9.4371 247.349C3.61608 243.983 4.35106 238.118 11.0688 234.237L264.386 88.0209C271.104 84.1403 281.276 83.714 287.097 87.0802L417.599 162.445C423.42 165.811 422.685 171.676 415.968 175.557L162.665 321.773C155.947 325.654 145.775 326.08 139.954 322.714Z" fill="url(#paint2_radial_3_14)"/>
<mask id="mask0_3_14" style="mask-type:luminance" maskUnits="userSpaceOnUse" x="5" y="84" width="417" height="241">
<path d="M139.954 322.714L9.4371 247.349C3.61608 243.983 4.35106 238.118 11.0688 234.237L264.386 88.0209C271.104 84.1403 281.276 83.714 287.097 87.0802L417.599 162.445C423.42 165.811 422.685 171.676 415.968 175.557L162.665 321.773C155.947 325.654 145.775 326.08 139.954 322.714Z" fill="white"/>
</mask>
<g mask="url(#mask0_3_14)">
<path d="M284.098 294.418C284.098 278.028 272.588 258.095 258.389 249.893C251.274 245.791 244.836 245.409 240.191 248.114L235.325 250.951L236.736 251.083C234.179 254.214 232.679 258.845 232.679 264.739C232.679 281.129 244.189 301.062 258.389 309.264C263.269 312.086 267.826 313.145 271.706 312.66L271.604 313.968L276.543 311.087C276.543 311.087 276.587 311.057 276.601 311.057L276.807 310.94C281.32 308.191 284.113 302.502 284.113 294.432L284.098 294.418Z" fill="#2675DB"/>
<path d="M271.644 313.944C281.684 308.147 281.685 289.354 271.647 271.967C261.608 254.58 245.332 245.184 235.292 250.98C225.252 256.777 225.251 275.571 235.289 292.958C245.327 310.345 261.604 319.74 271.644 313.944Z" fill="#FF6600"/>
</g>
</g>
<path opacity="0.4" d="M389.729 174.969C387.73 176.115 384.51 176.115 382.511 174.969C380.512 173.822 380.512 171.955 382.511 170.809C384.51 169.662 387.73 169.662 389.729 170.809C391.728 171.955 391.728 173.822 389.729 174.969Z" fill="#2042B8"/>
<path opacity="0.4" d="M362.197 154.904L376.323 163.062C378.043 164.061 377.837 165.796 375.838 166.943C373.839 168.089 370.825 168.221 369.106 167.222L354.979 159.064C353.259 158.064 353.465 156.329 355.464 155.183C357.464 154.036 360.477 153.904 362.197 154.904Z" fill="#2042B8"/>
<path opacity="0.4" d="M281.643 105.999L295.769 114.157C297.489 115.156 297.283 116.891 295.284 118.038C293.285 119.184 290.272 119.316 288.552 118.317L274.426 110.159C272.706 109.159 272.912 107.424 274.911 106.278C276.91 105.131 279.923 104.999 281.643 105.999Z" fill="#2042B8"/>
<path d="M389.729 169.897C387.73 171.044 384.51 171.044 382.511 169.897C380.512 168.751 380.512 166.884 382.511 165.737C384.51 164.591 387.73 164.591 389.729 165.737C391.728 166.884 391.728 168.751 389.729 169.897Z" fill="#FF6600"/>
<path d="M362.197 149.832L376.323 157.991C378.043 158.99 377.837 160.725 375.838 161.871C373.839 163.018 370.825 163.15 369.106 162.151L354.979 153.992C353.259 152.993 353.465 151.258 355.464 150.112C357.464 148.965 360.477 148.833 362.197 149.832Z" fill="#FF6600"/>
<path d="M281.643 100.942L295.769 109.1C297.489 110.099 297.283 111.834 295.284 112.981C293.285 114.127 290.272 114.259 288.552 113.26L274.426 105.102C272.706 104.102 272.912 102.367 274.911 101.221C276.91 100.074 279.923 99.942 281.643 100.942Z" fill="#FF6600"/>
<g opacity="0.3">
<path d="M468.871 347.894V341.308L467.049 340.294C466.534 343.41 462.874 345.454 459.816 345.88L438.987 358.066L429.888 361.344L400.871 346.365L401.547 345.983C399.063 344.822 397.726 342.176 396.388 339.75L394.433 340.911L393.272 341.235V347.997C393.272 349.29 394.124 350.584 395.829 351.554L424.905 368.341C428.315 370.311 433.842 370.311 437.253 368.341L466.328 351.554C468.004 350.584 468.857 349.32 468.886 348.055C468.886 347.997 468.886 347.938 468.886 347.879L468.871 347.894Z" fill="url(#paint3_linear_3_14)"/>
<path opacity="0.3" d="M459.816 345.866L438.987 358.051L431.079 360.903V369.811C433.313 369.811 435.547 369.326 437.253 368.341L466.328 351.554C468.004 350.584 468.857 349.32 468.886 348.056C468.886 347.997 468.886 347.938 468.886 347.879V341.294L467.225 340.368H467.049C466.475 343.425 462.859 345.439 459.831 345.866H459.816Z" fill="#2042B8"/>
<path d="M424.89 361.653L395.815 344.866C392.404 342.896 392.404 339.706 395.815 337.737L424.89 320.95C428.301 318.98 433.828 318.98 437.238 320.95L466.314 337.737C469.724 339.706 469.724 342.896 466.314 344.866L437.238 361.653C433.828 363.622 428.301 363.622 424.89 361.653Z" fill="url(#paint4_linear_3_14)"/>
<g opacity="0.3">
<path d="M424.89 361.653L395.815 344.866C392.404 342.896 392.404 339.706 395.815 337.737L424.89 320.95C428.301 318.98 433.828 318.98 437.238 320.95L466.314 337.737C469.724 339.706 469.724 342.896 466.314 344.866L437.238 361.653C433.828 363.622 428.301 363.622 424.89 361.653Z" fill="#2042B8"/>
</g>
</g>
<path d="M431.064 340.427C429.08 340.427 427.095 339.986 425.581 339.118L396.505 322.331C394.991 321.464 394.168 320.288 394.168 319.024C394.168 317.76 395.006 316.584 396.505 315.717L425.581 298.93C428.609 297.195 433.519 297.18 436.547 298.93L465.623 315.717C467.137 316.584 467.96 317.76 467.96 319.024C467.96 320.288 467.122 321.464 465.623 322.331L436.547 339.118C435.033 339.986 433.049 340.427 431.064 340.427ZM431.064 298.121C429.168 298.121 427.272 298.533 425.831 299.371L396.755 316.158C395.403 316.937 394.668 317.951 394.668 319.024C394.668 320.097 395.403 321.111 396.755 321.89L425.831 338.677C428.712 340.338 433.401 340.338 436.282 338.677L465.358 321.89C466.71 321.111 467.445 320.097 467.445 319.024C467.445 317.951 466.71 316.937 465.358 316.158L436.282 299.371C434.842 298.533 432.946 298.121 431.049 298.121H431.064Z" fill="#FF6600"/>
<path opacity="0.4" d="M468.871 312.585V302.634L467.049 301.62C466.534 304.736 462.874 306.779 459.816 307.205L438.987 319.391L429.888 322.669L400.871 307.69L401.547 307.308C399.063 306.147 397.726 303.501 396.388 301.076L394.433 302.237L393.272 302.56V312.688C393.272 313.982 394.124 315.275 395.829 316.246L424.905 333.032C428.315 335.002 433.842 335.002 437.253 333.032L466.328 316.246C468.004 315.275 468.857 314.011 468.886 312.747C468.886 312.688 468.886 312.63 468.886 312.571L468.871 312.585Z" fill="#FF6600"/>
<path d="M468.871 303.736V297.151L467.049 296.137C466.534 299.253 462.874 301.296 459.816 301.723L438.987 313.909L429.888 317.187L400.871 302.208L401.547 301.826C399.063 300.664 397.726 298.018 396.388 295.593L394.433 296.754L393.272 297.078V303.839C393.272 305.133 394.124 306.426 395.829 307.397L424.905 324.183C428.315 326.153 433.842 326.153 437.253 324.183L466.328 307.397C468.004 306.426 468.857 305.162 468.886 303.898C468.886 303.839 468.886 303.781 468.886 303.722L468.871 303.736Z" fill="url(#paint5_linear_3_14)"/>
<path opacity="0.3" d="M459.816 301.723L438.987 313.909L431.079 316.76V325.668C433.313 325.668 435.547 325.183 437.253 324.198L466.328 307.411C468.004 306.441 468.857 305.177 468.886 303.913C468.886 303.854 468.886 303.795 468.886 303.737V297.151L467.225 296.225H467.049C466.475 299.283 462.859 301.296 459.831 301.723H459.816Z" fill="#2042B8"/>
<path d="M424.89 317.495L395.815 300.708C392.404 298.739 392.404 295.549 395.815 293.579L424.89 276.792C428.301 274.822 433.828 274.822 437.238 276.792L466.314 293.579C469.724 295.549 469.724 298.739 466.314 300.708L437.238 317.495C433.828 319.465 428.301 319.465 424.89 317.495Z" fill="url(#paint6_linear_3_14)"/>
<path d="M466.313 300.708L437.238 317.495C433.828 319.465 428.3 319.465 424.89 317.495L395.814 300.708C394.286 299.826 393.448 298.709 393.286 297.548C393.08 298.974 393.933 300.429 395.814 301.517L424.89 318.304C428.3 320.273 433.828 320.273 437.238 318.304L466.313 301.517C468.195 300.429 469.033 298.959 468.842 297.548C468.68 298.695 467.842 299.826 466.313 300.708Z" fill="#E12828"/>
<g opacity="0.3">
<path d="M339.412 387.068V380.483L337.59 379.469C337.075 382.585 333.415 384.628 330.357 385.055L309.528 397.24L300.429 400.518L271.412 385.54L272.088 385.157C269.604 383.996 268.267 381.35 266.929 378.925L264.974 380.086L263.813 380.409V387.171C263.813 388.465 264.665 389.758 266.37 390.729L295.446 407.515C298.856 409.485 304.383 409.485 307.794 407.515L336.869 390.729C338.545 389.758 339.398 388.494 339.427 387.23C339.427 387.171 339.427 387.112 339.427 387.054L339.412 387.068Z" fill="url(#paint7_linear_3_14)"/>
<path opacity="0.3" d="M330.357 385.055L309.528 397.241L301.62 400.093V409C303.854 409 306.088 408.515 307.794 407.53L336.869 390.744C338.545 389.773 339.398 388.509 339.427 387.245C339.427 387.186 339.427 387.128 339.427 387.069V380.483L337.766 379.557H337.59C337.016 382.615 333.4 384.629 330.372 385.055H330.357Z" fill="#2042B8"/>
<path d="M295.431 400.827L266.356 384.04C262.945 382.071 262.945 378.881 266.356 376.911L295.431 360.124C298.842 358.155 304.369 358.155 307.779 360.124L336.855 376.911C340.265 378.881 340.265 382.071 336.855 384.04L307.779 400.827C304.369 402.797 298.842 402.797 295.431 400.827Z" fill="url(#paint8_linear_3_14)"/>
<g opacity="0.3">
<path d="M295.431 400.827L266.356 384.04C262.945 382.071 262.945 378.881 266.356 376.911L295.431 360.124C298.842 358.155 304.369 358.155 307.779 360.124L336.855 376.911C340.265 378.881 340.265 382.071 336.855 384.04L307.779 400.827C304.369 402.797 298.842 402.797 295.431 400.827Z" fill="#2042B8"/>
</g>
</g>
<path d="M301.605 376.411C299.621 376.411 297.636 375.97 296.122 375.102L267.047 358.316C265.533 357.448 264.709 356.272 264.709 355.008C264.709 353.744 265.547 352.568 267.047 351.701L296.122 334.914C299.15 333.165 304.06 333.165 307.088 334.914L336.164 351.701C337.678 352.568 338.501 353.744 338.501 355.008C338.501 356.272 337.663 357.448 336.164 358.316L307.088 375.102C305.574 375.97 303.59 376.411 301.605 376.411ZM296.387 374.661C299.268 376.322 303.957 376.322 306.838 374.661L335.914 357.875C337.266 357.095 338.001 356.081 338.001 355.008C338.001 353.935 337.266 352.921 335.914 352.142L306.838 335.355C303.957 333.694 299.268 333.694 296.387 335.355L267.311 352.142C265.974 352.921 265.224 353.935 265.224 355.008C265.224 356.081 265.959 357.095 267.311 357.875L296.387 374.661Z" fill="#FF6600"/>
<path opacity="0.4" d="M339.412 348.555V338.604L337.59 337.589C337.075 340.706 333.415 342.749 330.357 343.175L309.528 355.361L300.429 358.639L271.412 343.66L272.088 343.278C269.604 342.117 268.267 339.471 266.929 337.045L264.974 338.207L263.813 338.53V348.658C263.813 349.952 264.665 351.245 266.37 352.215L295.446 369.002C298.856 370.972 304.383 370.972 307.794 369.002L336.869 352.215C338.545 351.245 339.398 349.981 339.427 348.717C339.427 348.658 339.427 348.599 339.427 348.54L339.412 348.555Z" fill="#FF6600"/>
<path d="M339.412 339.706V333.121L337.59 332.106C337.075 335.223 333.415 337.266 330.357 337.692L309.528 349.878L300.429 353.156L271.412 338.177L272.088 337.795C269.604 336.634 268.267 333.988 266.929 331.562L264.974 332.724L263.813 333.047V339.809C263.813 341.103 264.665 342.396 266.37 343.366L295.446 360.153C298.856 362.123 304.383 362.123 307.794 360.153L336.869 343.366C338.545 342.396 339.398 341.132 339.427 339.868C339.427 339.809 339.427 339.75 339.427 339.691L339.412 339.706Z" fill="url(#paint9_linear_3_14)"/>
<path opacity="0.3" d="M330.358 337.692L309.528 349.878L301.62 352.73V361.638C303.854 361.638 306.089 361.153 307.794 360.168L336.869 343.381C338.545 342.411 339.398 341.147 339.427 339.883C339.427 339.824 339.427 339.765 339.427 339.706V333.121L337.766 332.195H337.59C337.016 335.252 333.4 337.266 330.372 337.692H330.358Z" fill="#2042B8"/>
<path d="M295.431 353.465L266.356 336.678C262.945 334.708 262.945 331.519 266.356 329.549L295.431 312.762C298.842 310.792 304.369 310.792 307.779 312.762L336.855 329.549C340.265 331.519 340.265 334.708 336.855 336.678L307.779 353.465C304.369 355.435 298.842 355.435 295.431 353.465Z" fill="url(#paint10_linear_3_14)"/>
<path d="M301.605 350.422C299.812 350.422 298.019 350.025 296.651 349.246L273.941 336.134C272.574 335.34 271.824 334.282 271.824 333.121C271.824 331.96 272.574 330.901 273.941 330.122L296.651 317.01C299.386 315.437 303.825 315.437 306.559 317.01L329.27 330.122C330.637 330.916 331.387 331.974 331.387 333.135C331.387 334.282 330.637 335.355 329.27 336.134L306.559 349.246C305.192 350.04 303.399 350.422 301.605 350.422ZM296.916 348.805C299.503 350.305 303.722 350.305 306.309 348.805L329.02 335.693C330.225 335.002 330.887 334.091 330.887 333.135C330.887 332.18 330.225 331.269 329.02 330.563L306.309 317.451C303.722 315.952 299.503 315.952 296.916 317.451L274.205 330.563C273 331.254 272.338 332.165 272.338 333.121C272.338 334.076 273 334.988 274.205 335.678L296.916 348.79V348.805Z" fill="#5351AF"/>
<path d="M336.855 336.678L307.779 353.465C304.369 355.435 298.842 355.435 295.431 353.465L266.356 336.678C264.827 335.796 263.989 334.679 263.827 333.518C263.622 334.943 264.474 336.399 266.356 337.486L295.431 354.273C298.842 356.243 304.369 356.243 307.779 354.273L336.855 337.486C338.736 336.399 339.574 334.929 339.383 333.518C339.221 334.664 338.383 335.796 336.855 336.678Z" fill="#E12828"/>
<g opacity="0.3">
<path d="M90.7404 153.36V146.774L88.9176 145.76C88.4031 148.876 84.743 150.92 81.6854 151.346L60.8562 163.532L51.7572 166.81L22.7403 151.831L23.4165 151.449C20.9322 150.288 19.5946 147.642 18.2569 145.216L16.3019 146.378L15.1406 146.701V153.463C15.1406 154.756 15.9932 156.05 17.6983 157.02L46.774 173.807C50.1843 175.777 55.7114 175.777 59.1217 173.807L88.1973 157.02C89.8731 156.05 90.7257 154.786 90.7551 153.522C90.7551 153.463 90.7551 153.404 90.7551 153.345L90.7404 153.36Z" fill="url(#paint11_linear_3_14)"/>
<path opacity="0.3" d="M81.6854 151.346L60.8561 163.532L52.9478 166.384V175.292C55.1821 175.292 57.4164 174.807 59.1216 173.822L88.1973 157.035C89.873 156.065 90.7256 154.801 90.755 153.537C90.755 153.478 90.755 153.419 90.755 153.36V146.775L89.0939 145.849H88.9175C88.3442 148.906 84.7282 150.92 81.7001 151.346H81.6854Z" fill="#2042B8"/>
<path d="M46.774 167.134L17.6983 150.347C14.288 148.377 14.288 145.187 17.6983 143.217L46.774 126.431C50.1843 124.461 55.7113 124.461 59.1216 126.431L88.1973 143.217C91.6076 145.187 91.6076 148.377 88.1973 150.347L59.1216 167.134C55.7113 169.103 50.1843 169.103 46.774 167.134Z" fill="url(#paint12_linear_3_14)"/>
<g opacity="0.3">
<path d="M46.774 167.134L17.6983 150.347C14.288 148.377 14.288 145.187 17.6983 143.217L46.774 126.431C50.1843 124.461 55.7113 124.461 59.1216 126.431L88.1973 143.217C91.6076 145.187 91.6076 148.377 88.1973 150.347L59.1216 167.134C55.7113 169.103 50.1843 169.103 46.774 167.134Z" fill="#2042B8"/>
</g>
</g>
<path d="M52.9476 147.01C50.9632 147.01 48.9787 146.569 47.4647 145.702L18.389 128.915C16.8749 128.048 16.0518 126.872 16.0518 125.608C16.0518 124.344 16.8896 123.168 18.389 122.3L47.4647 105.513C50.4928 103.764 55.4024 103.764 58.4305 105.513L87.5062 122.3C89.0203 123.168 89.8434 124.344 89.8434 125.608C89.8434 126.872 89.0056 128.048 87.5062 128.915L58.4305 145.702C56.9165 146.569 54.932 147.01 52.9476 147.01ZM52.9476 104.705C51.0514 104.705 49.1698 105.117 47.7146 105.954L18.6389 122.741C17.2865 123.52 16.5515 124.535 16.5515 125.608C16.5515 126.681 17.2865 127.695 18.6389 128.474L47.7146 145.261C50.5957 146.922 55.2848 146.922 58.1659 145.261L87.2416 128.474C88.594 127.695 89.329 126.681 89.329 125.608C89.329 124.535 88.594 123.52 87.2416 122.741L58.1659 105.954C56.7254 105.117 54.8291 104.705 52.9329 104.705H52.9476Z" fill="#FF6600"/>
<path opacity="0.4" d="M90.7403 119.169V109.217L88.9176 108.203C88.4031 111.319 84.7429 113.363 81.6854 113.789L60.8561 125.975L51.7571 129.253L22.7402 114.274L23.4164 113.892C20.9322 112.731 19.5945 110.085 18.2569 107.659L16.3018 108.821L15.1406 109.144V119.272C15.1406 120.566 15.9931 121.859 17.6983 122.829L46.774 139.616C50.1843 141.586 55.7113 141.586 59.1216 139.616L88.1973 122.829C89.873 121.859 90.7256 120.595 90.755 119.331C90.755 119.272 90.755 119.213 90.755 119.154L90.7403 119.169Z" fill="#FF6600"/>
<path d="M90.7403 110.32V103.735L88.9176 102.72C88.4031 105.837 84.7429 107.88 81.6854 108.306L60.8561 120.492L51.7571 123.77L22.7402 108.791L23.4164 108.409C20.9322 107.248 19.5945 104.602 18.2569 102.176L16.3018 103.338L15.1406 103.661V110.423C15.1406 111.716 15.9931 113.01 17.6983 113.98L46.774 130.767C50.1843 132.737 55.7113 132.737 59.1216 130.767L88.1973 113.98C89.873 113.01 90.7256 111.746 90.755 110.482C90.755 110.423 90.755 110.364 90.755 110.305L90.7403 110.32Z" fill="url(#paint13_linear_3_14)"/>
<path opacity="0.3" d="M81.6854 108.292L60.8561 120.478L52.9478 123.329V132.237C55.1821 132.237 57.4164 131.752 59.1216 130.767L88.1973 113.98C89.873 113.01 90.7256 111.746 90.755 110.482C90.755 110.423 90.755 110.364 90.755 110.306V103.72L89.0939 102.794H88.9175C88.3442 105.852 84.7282 107.865 81.7001 108.292H81.6854Z" fill="#2042B8"/>
<path d="M23.4163 108.394L50.9632 92.4894C52.051 91.8573 53.8296 91.8573 54.9174 92.4894L81.9939 108.115L81.6999 108.291C84.7574 107.865 88.4176 105.822 88.9321 102.706L58.5482 85.8011L49.7137 83.4639L42.511 87.6973L18.2567 102.162C19.5944 104.572 20.932 107.233 23.4163 108.394Z" fill="url(#paint14_linear_3_14)"/>
<path opacity="0.3" d="M52.9476 84.3312L49.7137 83.4786L42.511 87.7121L18.2567 102.176C19.5944 104.587 20.932 107.248 23.4163 108.409L50.9632 92.5042C51.5071 92.1955 52.2274 92.0338 52.9476 92.0338V84.3459V84.3312Z" fill="#2042B8"/>
<path d="M46.774 124.079L17.6983 107.292C14.288 105.322 14.288 102.132 17.6983 100.163L46.774 83.3759C50.1843 81.4061 55.7113 81.4061 59.1216 83.3759L88.1973 100.163C91.6076 102.132 91.6076 105.322 88.1973 107.292L59.1216 124.079C55.7113 126.049 50.1843 126.049 46.774 124.079ZM54.9175 85.8013C53.8298 85.1692 52.0511 85.1692 50.9633 85.8013L21.8877 102.588C20.7999 103.22 20.7999 104.235 21.8877 104.867L50.9633 121.653C52.0511 122.286 53.8298 122.286 54.9175 121.653L83.9932 104.867C85.081 104.235 85.081 103.22 83.9932 102.588L54.9175 85.8013Z" fill="url(#paint15_linear_3_14)"/>
<path d="M83.9932 102.588L54.9175 85.8011C53.8297 85.169 52.0511 85.169 50.9633 85.8011L21.8876 102.588C21.1674 103.014 20.9175 103.602 21.1674 104.146C21.285 103.882 21.5348 103.632 21.8876 103.411L50.9633 86.6243C52.0511 85.9922 53.8297 85.9922 54.9175 86.6243L83.9932 103.411C84.3607 103.617 84.5959 103.882 84.7135 104.146C84.9634 103.602 84.7135 103.014 83.9932 102.588Z" fill="#E12828"/>
<path d="M88.1972 107.292L59.1215 124.079C55.7112 126.048 50.1842 126.048 46.7739 124.079L17.6982 107.292C16.1694 106.41 15.3316 105.293 15.1699 104.131C14.9641 105.557 15.8167 107.013 17.6982 108.1L46.7739 124.887C50.1842 126.857 55.7112 126.857 59.1215 124.887L88.1972 108.1C90.0787 107.013 90.9166 105.543 90.7255 104.131C90.5638 105.278 89.7259 106.41 88.1972 107.292Z" fill="#E12828"/>
<path d="M47.5825 123.609L18.5068 106.822C15.5522 105.117 15.5522 102.338 18.5068 100.633L47.5825 83.8464C50.5371 82.1412 55.3438 82.1412 58.2837 83.8464L87.3594 100.633C90.314 102.338 90.314 105.117 87.3594 106.807L58.2837 123.594C55.3291 125.299 50.5224 125.299 47.5825 123.594V123.609ZM55.726 85.331C54.1826 84.4343 51.6689 84.4343 50.1255 85.331L21.0498 102.118C19.5064 103.015 19.5064 104.455 21.0498 105.352L50.1255 122.139C51.6689 123.035 54.1826 123.035 55.726 122.139L84.8017 105.352C86.3452 104.455 86.3452 103.015 84.8017 102.118L55.726 85.331Z" fill="url(#paint16_linear_3_14)"/>
<path opacity="0.4" d="M54.9175 85.8012C53.8297 85.1691 52.0511 85.1691 50.9633 85.8012L21.8876 102.588C20.7998 103.22 20.7998 104.234 21.8876 104.867L50.9633 121.653C52.0511 122.285 53.8297 122.285 54.9175 121.653L83.9932 104.867C85.0809 104.234 85.0809 103.22 83.9932 102.588L54.9175 85.8012Z" fill="#FF6600"/>
<g style="mix-blend-mode:multiply" opacity="0.5">
<path style="mix-blend-mode:lighten" d="M84.8018 103.705V0H21.0646V103.705C21.0646 104.132 21.3292 104.543 21.8877 104.867L50.9634 121.653C52.0512 122.285 53.8298 122.285 54.9176 121.653L83.9933 104.867C84.5519 104.543 84.8165 104.117 84.8018 103.705Z" fill="url(#paint17_linear_3_14)"/>
</g>
<path d="M284.098 186.287C284.098 169.897 272.588 149.965 258.389 141.762C251.274 137.661 244.836 137.279 240.191 139.984L235.325 142.821L236.736 142.953C234.178 146.084 232.679 150.714 232.679 156.609C232.679 172.999 244.189 192.931 258.389 201.134C263.269 203.956 267.826 205.014 271.706 204.529L271.603 205.838L276.543 202.956C276.543 202.956 276.587 202.927 276.601 202.927L276.807 202.809C281.32 200.061 284.113 194.372 284.113 186.302L284.098 186.287Z" fill="#2675DB"/>
<path d="M271.658 205.806C281.698 200.01 281.699 181.216 271.661 163.829C261.623 146.442 245.346 137.047 235.306 142.843C225.267 148.64 225.265 167.433 235.304 184.82C245.342 202.207 261.619 211.603 271.658 205.806Z" fill="#FF6600"/>
<path d="M224.05 115.436C233.561 102.089 235.766 79.172 228.96 64.2666C225.55 56.7993 220.537 52.7422 215.172 52.2424L209.571 51.7279L210.644 52.654C206.734 53.727 202.839 56.6229 199.414 61.4149C189.903 74.7621 187.698 97.6787 194.504 112.584C196.842 117.714 199.943 121.227 203.383 123.079L202.545 124.079L208.234 124.594C208.234 124.594 208.278 124.594 208.307 124.594H208.542C213.805 124.99 219.391 121.962 224.065 115.406L224.05 115.436Z" fill="#2675DB"/>
<path d="M226.963 89.9341C228.884 69.9495 221.086 52.8497 209.546 51.7406C198.006 50.6315 187.094 65.933 185.174 85.9176C183.253 105.902 191.051 123.002 202.59 124.111C214.13 125.22 225.042 109.919 226.963 89.9341Z" fill="#FF6600"/>
<g opacity="0.1">
<path d="M232.694 223.345C232.694 206.955 221.184 187.022 206.984 178.82C199.87 174.719 193.431 174.337 188.786 177.041L183.921 179.878L185.332 180.011C182.774 183.142 181.275 187.772 181.275 193.667C181.275 210.057 192.785 229.989 206.984 238.192C211.865 241.014 216.421 242.072 220.302 241.587L220.199 242.895L225.138 240.014C225.138 240.014 225.182 239.985 225.197 239.985L225.403 239.867C229.916 237.118 232.709 231.43 232.709 223.36L232.694 223.345Z" fill="#2675DB"/>
<path d="M220.254 242.86C230.294 237.064 230.295 218.27 220.257 200.883C210.219 183.496 193.942 174.1 183.902 179.897C173.863 185.693 173.861 204.487 183.9 221.874C193.938 239.261 210.214 248.657 220.254 242.86Z" fill="#FF6600"/>
</g>
<path opacity="0.4" d="M203.736 250.098C186.008 250.098 168.266 246.203 154.771 238.412C141.645 230.827 134.412 220.743 134.412 209.998C134.412 199.252 141.645 189.168 154.771 181.583C181.774 165.987 225.697 166.002 252.7 181.583C265.826 189.168 273.059 199.252 273.059 209.998C273.059 220.743 265.826 230.842 252.7 238.412C239.205 246.203 221.463 250.098 203.736 250.098ZM203.736 170.382C186.096 170.382 168.457 174.263 155.021 182.01C142.056 189.492 134.927 199.429 134.927 209.983C134.927 220.537 142.071 230.474 155.036 237.956C181.892 253.464 225.594 253.464 252.45 237.956C265.415 230.474 272.544 220.537 272.544 209.983C272.544 199.429 265.4 189.492 252.435 182.01C239 174.248 221.36 170.382 203.721 170.382H203.736Z" fill="#FF6600"/>
<path opacity="0.2" d="M203.736 260.843C181.231 260.843 158.726 255.904 141.601 246.011C124.961 236.398 115.788 223.609 115.788 209.997C115.788 196.386 124.961 183.582 141.601 173.984C175.865 154.198 231.606 154.198 265.871 173.984C282.511 183.597 291.683 196.386 291.683 209.997C291.683 223.609 282.511 236.413 265.871 246.011C248.746 255.904 226.241 260.843 203.736 260.843ZM203.736 159.637C181.319 159.637 158.917 164.561 141.851 174.41C125.372 183.92 116.288 196.562 116.288 209.983C116.288 223.418 125.358 236.045 141.851 245.556C175.968 265.253 231.488 265.253 265.606 245.556C282.084 236.045 291.169 223.403 291.169 209.983C291.169 196.562 282.099 183.92 265.606 174.41C248.54 164.561 226.138 159.637 203.721 159.637H203.736Z" fill="#FF6600"/>
<path d="M203.736 241.631C189.756 241.631 175.792 238.559 165.149 232.415C154.801 226.432 149.098 218.465 149.098 209.983C149.098 201.501 154.801 193.534 165.149 187.552C186.434 175.263 221.052 175.263 242.322 187.552C252.671 193.534 258.374 201.501 258.374 209.983C258.374 218.465 252.671 226.432 242.322 232.415C231.68 238.559 217.715 241.631 203.736 241.631ZM203.736 178.849C189.859 178.849 175.968 181.907 165.399 188.007C155.213 193.887 149.597 201.693 149.597 209.998C149.597 218.303 155.213 226.094 165.399 231.988C186.537 244.189 220.934 244.189 242.072 231.988C252.259 226.108 257.874 218.303 257.874 210.012C257.874 201.722 252.259 193.916 242.072 188.022C231.503 181.922 217.627 178.864 203.736 178.864V178.849Z" fill="#FF6600"/>
<mask id="mask1_3_14" style="mask-type:luminance" maskUnits="userSpaceOnUse" x="163" y="117" width="81" height="110">
<path d="M243.983 216.848L227.828 226.167L163.488 189.021V117.582L243.983 164.062V216.848Z" fill="white"/>
</mask>
<g mask="url(#mask1_3_14)">
<path d="M232.694 223.345C232.694 206.955 221.184 187.022 206.984 178.82C199.87 174.719 193.431 174.337 188.786 177.041L183.921 179.878L185.332 180.011C182.774 183.142 181.275 187.772 181.275 193.667C181.275 210.057 192.784 229.989 206.984 238.191C211.864 241.014 216.421 242.072 220.302 241.587L220.199 242.895L225.138 240.014C225.138 240.014 225.182 239.985 225.197 239.985L225.403 239.867C229.915 237.118 232.708 231.43 232.708 223.36L232.694 223.345Z" fill="#2675DB"/>
<path d="M220.254 242.86C230.294 237.064 230.295 218.27 220.257 200.883C210.219 183.496 193.942 174.1 183.902 179.897C173.862 185.693 173.861 204.487 183.899 221.874C193.938 239.261 210.214 248.657 220.254 242.86Z" fill="#FF6600"/>
</g>
<path opacity="0.4" d="M134.692 294.255L53.9621 247.643C51.5808 246.261 51.5808 242.836 53.9621 241.455L66.2804 234.281C70.3962 231.9 75.4823 231.9 79.5981 234.281L160.328 280.894C162.709 282.275 162.709 285.7 160.328 287.082L148.01 294.255C143.894 296.637 138.808 296.637 134.692 294.255Z" fill="#2042B8"/>
<path d="M94.283 246.614L81.3621 239.161L83.9345 237.677L96.8554 245.129L94.283 246.614Z" fill="#FF6600"/>
<path d="M130.708 268.178L126.74 265.885L129.312 264.4L133.281 266.694L130.708 268.178Z" fill="#FF6600"/>
<path d="M101.765 251.053L97.7961 248.76L100.369 247.276L104.337 249.569L101.765 251.053Z" fill="#FF6600"/>
<path d="M141.351 284.98C138.999 284.98 136.647 284.377 134.545 283.157L53.815 236.545C52.6097 235.839 51.8894 234.59 51.8894 233.193C51.8894 231.797 52.6097 230.548 53.815 229.842L66.1333 222.669C70.3373 220.243 75.541 220.243 79.745 222.669L160.475 269.281C161.68 269.972 162.401 271.236 162.401 272.632C162.401 274.029 161.68 275.278 160.475 275.984L148.157 283.157C146.055 284.363 143.703 284.98 141.351 284.98ZM72.9538 221.448C70.7048 221.448 68.4558 222.022 66.442 223.183L54.1237 230.356C53.0948 230.944 52.4774 232.017 52.4774 233.193C52.4774 234.369 53.0948 235.442 54.1237 236.03L134.854 282.643C138.867 284.965 143.864 284.965 147.877 282.643L160.196 275.469C161.225 274.881 161.842 273.823 161.842 272.632C161.842 271.442 161.225 270.383 160.196 269.795L79.4657 223.183C77.4519 222.022 75.2029 221.448 72.9538 221.448Z" fill="#FF6600"/>
</g>
<defs>
<linearGradient id="paint0_linear_3_14" x1="0.294066" y1="223.565" x2="427.007" y2="223.565" gradientUnits="userSpaceOnUse">
<stop stop-color="#BCBEFF"/>
<stop offset="0.15" stop-color="#A2A6F5"/>
<stop offset="0.39" stop-color="#8188E8"/>
<stop offset="0.61" stop-color="#6A72DE"/>
<stop offset="0.82" stop-color="#5B65D8"/>
<stop offset="1" stop-color="#5761D7"/>
</linearGradient>
<linearGradient id="paint1_linear_3_14" x1="273.088" y1="283.936" x2="153.963" y2="125.872" gradientUnits="userSpaceOnUse">
<stop stop-color="#42E8E0"/>
<stop offset="0.11" stop-color="#36B5BF"/>
<stop offset="0.22" stop-color="#2C87A0"/>
<stop offset="0.34" stop-color="#235F86"/>
<stop offset="0.46" stop-color="#1B3E71"/>
<stop offset="0.58" stop-color="#162560"/>
<stop offset="0.71" stop-color="#121355"/>
<stop offset="0.85" stop-color="#0F084E"/>
<stop offset="1" stop-color="#0F054C"/>
</linearGradient>
<radialGradient id="paint2_radial_3_14" cx="0" cy="0" r="1" gradientUnits="userSpaceOnUse" gradientTransform="translate(203.059 208.939) scale(333.988 333.988)">
<stop stop-color="#42E8E0"/>
<stop offset="0.11" stop-color="#36B5BF"/>
<stop offset="0.22" stop-color="#2C87A0"/>
<stop offset="0.34" stop-color="#235F86"/>
<stop offset="0.46" stop-color="#1B3E71"/>
<stop offset="0.58" stop-color="#162560"/>
<stop offset="0.71" stop-color="#0C57C6"/>
<stop offset="0.85" stop-color="#0747A6"/>
<stop offset="1" stop-color="#0747A6"/>
</radialGradient>
<linearGradient id="paint3_linear_3_14" x1="400.783" y1="328.211" x2="460.772" y2="362.843" gradientUnits="userSpaceOnUse">
<stop stop-color="#BCBEFF"/>
<stop offset="0.23" stop-color="#AAADF7"/>
<stop offset="0.68" stop-color="#7B82E5"/>
<stop offset="1" stop-color="#5761D7"/>
</linearGradient>
<linearGradient id="paint4_linear_3_14" x1="393.257" y1="341.294" x2="468.871" y2="341.294" gradientUnits="userSpaceOnUse">
<stop stop-color="#E9E9FD"/>
<stop offset="0.36" stop-color="#D2D2F9"/>
<stop offset="0.71" stop-color="#C4C3F6"/>
<stop offset="1" stop-color="#C0BFF6"/>
</linearGradient>
<linearGradient id="paint5_linear_3_14" x1="400.783" y1="284.054" x2="460.772" y2="318.686" gradientUnits="userSpaceOnUse">
<stop stop-color="#BCBEFF"/>
<stop offset="0.23" stop-color="#AAADF7"/>
<stop offset="0.68" stop-color="#7B82E5"/>
<stop offset="1" stop-color="#5761D7"/>
</linearGradient>
<linearGradient id="paint6_linear_3_14" x1="393.257" y1="297.151" x2="468.871" y2="297.151" gradientUnits="userSpaceOnUse">
<stop stop-color="#E9E9FD"/>
<stop offset="0.36" stop-color="#D2D2F9"/>
<stop offset="0.71" stop-color="#C4C3F6"/>
<stop offset="1" stop-color="#C0BFF6"/>
</linearGradient>
<linearGradient id="paint7_linear_3_14" x1="271.324" y1="367.386" x2="331.313" y2="402.018" gradientUnits="userSpaceOnUse">
<stop stop-color="#BCBEFF"/>
<stop offset="0.23" stop-color="#AAADF7"/>
<stop offset="0.68" stop-color="#7B82E5"/>
<stop offset="1" stop-color="#5761D7"/>
</linearGradient>
<linearGradient id="paint8_linear_3_14" x1="263.798" y1="380.483" x2="339.412" y2="380.483" gradientUnits="userSpaceOnUse">
<stop stop-color="#E9E9FD"/>
<stop offset="0.36" stop-color="#D2D2F9"/>
<stop offset="0.71" stop-color="#C4C3F6"/>
<stop offset="1" stop-color="#C0BFF6"/>
</linearGradient>
<linearGradient id="paint9_linear_3_14" x1="271.324" y1="320.023" x2="331.313" y2="354.655" gradientUnits="userSpaceOnUse">
<stop stop-color="#BCBEFF"/>
<stop offset="0.23" stop-color="#AAADF7"/>
<stop offset="0.68" stop-color="#7B82E5"/>
<stop offset="1" stop-color="#5761D7"/>
</linearGradient>
<linearGradient id="paint10_linear_3_14" x1="263.798" y1="333.121" x2="339.412" y2="333.121" gradientUnits="userSpaceOnUse">
<stop stop-color="#E9E9FD"/>
<stop offset="0.36" stop-color="#D2D2F9"/>
<stop offset="0.71" stop-color="#C4C3F6"/>
<stop offset="1" stop-color="#C0BFF6"/>
</linearGradient>
<linearGradient id="paint11_linear_3_14" x1="22.6521" y1="133.692" x2="82.6409" y2="168.324" gradientUnits="userSpaceOnUse">
<stop stop-color="#BCBEFF"/>
<stop offset="0.23" stop-color="#AAADF7"/>
<stop offset="0.68" stop-color="#7B82E5"/>
<stop offset="1" stop-color="#5761D7"/>
</linearGradient>
<linearGradient id="paint12_linear_3_14" x1="15.1406" y1="146.775" x2="90.7403" y2="146.775" gradientUnits="userSpaceOnUse">
<stop stop-color="#E9E9FD"/>
<stop offset="0.36" stop-color="#D2D2F9"/>
<stop offset="0.71" stop-color="#C4C3F6"/>
<stop offset="1" stop-color="#C0BFF6"/>
</linearGradient>
<linearGradient id="paint13_linear_3_14" x1="22.652" y1="90.6373" x2="82.6408" y2="125.269" gradientUnits="userSpaceOnUse">
<stop stop-color="#BCBEFF"/>
<stop offset="0.23" stop-color="#AAADF7"/>
<stop offset="0.68" stop-color="#7B82E5"/>
<stop offset="1" stop-color="#5761D7"/>
</linearGradient>
<linearGradient id="paint14_linear_3_14" x1="26.2533" y1="88.3" x2="79.7596" y2="119.184" gradientUnits="userSpaceOnUse">
<stop offset="0.24" stop-color="#5761D7"/>
<stop offset="0.39" stop-color="#7A81E5"/>
<stop offset="0.55" stop-color="#979BF0"/>
<stop offset="0.7" stop-color="#ABAEF8"/>
<stop offset="0.85" stop-color="#B7BAFD"/>
<stop offset="1" stop-color="#BCBEFF"/>
</linearGradient>
<linearGradient id="paint15_linear_3_14" x1="15.1406" y1="103.72" x2="90.7403" y2="103.72" gradientUnits="userSpaceOnUse">
<stop stop-color="#E9E9FD"/>
<stop offset="0.36" stop-color="#D2D2F9"/>
<stop offset="0.71" stop-color="#C4C3F6"/>
<stop offset="1" stop-color="#C0BFF6"/>
</linearGradient>
<linearGradient id="paint16_linear_3_14" x1="16.3019" y1="103.72" x2="89.5791" y2="103.72" gradientUnits="userSpaceOnUse">
<stop stop-color="#E9E9FD"/>
<stop offset="0.36" stop-color="#D2D2F9"/>
<stop offset="0.71" stop-color="#C4C3F6"/>
<stop offset="1" stop-color="#C0BFF6"/>
</linearGradient>
<linearGradient id="paint17_linear_3_14" x1="52.9332" y1="122.124" x2="53" y2="13.5" gradientUnits="userSpaceOnUse">
<stop stop-color="#368DFF" stop-opacity="0.58"/>
<stop offset="1" stop-color="#4C9AFF" stop-opacity="0"/>
</linearGradient>
<clipPath id="clip0_3_14">
<rect width="469" height="409" fill="white"/>
</clipPath>
</defs>
</svg>
