<svg width="100" height="76" viewBox="0 0 100 76" fill="none" xmlns="http://www.w3.org/2000/svg">
<path d="M9.21127 50.1298C11.8135 50.1298 14.0017 49.568 15.7907 48.4591C17.5798 47.3502 18.6443 45.8864 18.9844 44.0678C19.2653 42.4562 18.9104 41.1699 17.905 40.2089C16.8849 39.2626 15.0663 38.5233 12.4197 38.0058C9.74354 37.4884 8.02844 36.9265 7.2596 36.3499C6.47598 35.7733 6.18027 34.9896 6.3577 33.9842C6.7569 31.7073 8.76771 30.5688 12.3605 30.5688C16.3822 30.5688 17.8607 32.0621 17.2545 35.4923H20.1081C20.4925 33.2745 20.0193 31.4855 18.6887 30.14C17.3432 28.7946 15.3915 28.1145 12.8337 28.1145C10.3941 28.1145 8.33893 28.6911 6.63862 29.8443C4.9383 30.9976 3.9329 32.5057 3.60762 34.3539C3.3267 35.9063 3.69633 37.1187 4.71652 37.9911C5.73671 38.8782 7.54052 39.5879 10.1427 40.1349C11.9761 40.5046 13.3659 40.9038 14.327 41.3621C15.2733 41.8205 15.8499 42.2492 16.0717 42.678C16.2787 43.1068 16.323 43.6538 16.2047 44.3044C15.8055 46.5666 13.6321 47.705 9.65483 47.705C5.41143 47.705 3.78505 46.2413 4.36168 42.9737H1.5081C1.12369 45.1176 1.64117 46.8327 3.06057 48.1486C4.47996 49.4645 6.53512 50.1298 9.21127 50.1298ZM34.2576 36.409L34.6273 34.2947H28.5061L29.2898 29.7113H26.7467L25.9039 34.2947H22.7251L22.3554 36.409H25.5047L23.9375 45.3394C23.6713 46.744 23.9227 47.8677 24.6915 48.7104C25.4456 49.5532 26.6136 49.9672 28.1661 49.9672C29.4376 49.9672 30.7091 49.8785 31.9807 49.701L32.2912 47.8233H28.8314C27.8112 47.8233 27.1459 47.6015 26.8354 47.1728C26.5249 46.744 26.4658 45.9456 26.658 44.7923L28.1069 36.409H34.2576ZM44.1342 33.866C41.8573 33.866 39.9056 34.6052 38.2645 36.0985C36.6233 37.5919 35.6031 39.5731 35.1743 42.0127C34.7308 44.4523 35.0708 46.4187 36.1945 47.8972C37.3182 49.3906 39.0185 50.1298 41.2955 50.1298C43.3506 50.1298 45.0953 49.6419 46.5295 48.6809C47.9636 47.7198 48.8064 46.4778 49.0725 44.9402H46.3816C46.012 47.0545 44.5482 48.0007 41.6503 48.0007C38.5158 48.0007 37.3034 46.3004 37.8357 42.5597H49.59L49.8857 40.889C50.2702 38.7895 49.9301 37.0892 48.8803 35.8028C47.8158 34.5165 46.2338 33.866 44.1342 33.866ZM38.2053 40.7707C39.0481 37.5031 40.7928 35.9803 43.7498 35.9803C46.6034 35.9803 47.7123 37.444 47.2244 40.7116H41.9608L38.2053 40.7707ZM63.9909 33.866C61.3739 33.866 59.304 35.0636 57.7811 37.444L58.3282 34.2947H55.8147L52.0888 55.3343H54.7205L56.1695 47.1284C56.894 49.0949 58.7569 50.1298 61.1374 50.1298C63.296 50.1298 65.1442 49.3906 66.6819 47.8972C68.2196 46.4187 69.2102 44.4523 69.6537 42.0127C70.0825 39.5435 69.7868 37.5771 68.7666 36.0838C67.7464 34.6052 66.1496 33.866 63.9909 33.866ZM66.8889 42.0127C66.12 46.1674 64.3162 48.0007 60.9304 48.0007C57.5002 48.0007 56.3174 46.1674 57.0862 42.0127C57.7811 37.8136 59.5849 35.9803 63.0151 35.9803C66.4453 35.9803 67.5838 37.8136 66.8889 42.0127Z" fill="#7b5282"/>
<path d="M98.6031 23.3582C99.18 20.0616 98.2734 17.4244 95.9384 15.419C93.6033 13.4135 90.1968 12.4246 85.7739 12.4246C81.1312 12.4246 77.1478 13.7432 73.8513 16.353C70.5547 18.9628 68.5218 22.4242 67.78 26.6823H77.2302C78.0819 22.0396 80.1697 20.0342 84.1531 20.0342C87.8892 20.0342 89.2353 21.5176 88.6584 25.034C87.9716 28.4679 86.131 30.1712 83.1366 30.1712H77.8072L76.6808 36.572H82.6421C86.3233 36.572 87.8617 38.1928 87.2574 41.407C86.6255 44.7036 84.4553 46.1871 79.8675 46.1871C75.2248 46.1871 73.5216 44.2915 74.2633 39.7862H64.8131C64.0714 44.0168 64.9505 47.4233 67.4779 49.9781C70.0052 52.5605 73.7139 53.8516 78.5764 53.8516C83.4113 53.8516 87.5046 52.7802 90.8561 50.61C94.1802 48.4672 96.1856 45.6376 96.8174 42.0938C97.8888 36.2973 94.6197 32.5887 86.7354 31.6821C93.7406 30.9129 97.7515 27.946 98.6031 23.3582Z" fill="#7b5282"/>
</svg>
